<?xml version="1.0" standalone="no"?>
<!DOCTYPE svg PUBLIC "-//W3C//DTD SVG 20010904//EN"
 "http://www.w3.org/TR/2001/REC-SVG-20010904/DTD/svg10.dtd">
<svg version="1.0" xmlns="http://www.w3.org/2000/svg"
 width="64.000000pt" height="64.000000pt" viewBox="0 0 64.000000 64.000000"
 preserveAspectRatio="xMidYMid meet">

<g transform="translate(0.000000,64.000000) scale(0.100000,-0.100000)"
fill="#000000" stroke="none">
<path d="M228 593 l-78 -36 0 -98 0 -97 -75 -35 -75 -36 0 -108 0 -109 75 -37
c42 -20 82 -37 90 -37 9 0 47 16 85 35 l70 35 77 -35 77 -36 83 37 83 37 0
108 0 109 -80 40 -80 40 0 94 0 94 -76 36 c-42 20 -81 36 -88 36 -6 0 -46 -17
-88 -37z m312 -338 l-65 -33 -52 26 c-29 15 -53 29 -53 32 0 3 26 19 58 36
l57 30 60 -29 59 -29 -64 -33z m-322 54 l67 -31 -59 -30 -60 -30 -65 32 -66
32 55 29 c30 15 56 28 58 29 1 0 33 -14 70 -31z m-58 -199 l0 -90 -57 26 c-32
14 -64 28 -70 31 -9 4 -13 33 -13 99 l0 94 70 -35 70 -35 0 -90z m298 97 c15
-12 17 -177 2 -177 -6 0 -37 14 -70 30 l-60 30 0 90 0 89 58 -26 c31 -14 63
-30 70 -36z m162 -27 l0 -90 -60 -30 c-33 -16 -62 -30 -65 -30 -3 0 -5 40 -5
90 l0 90 63 29 c34 16 63 30 65 30 1 1 2 -39 2 -89z m-310 -9 c0 -62 -4 -90
-12 -94 -7 -3 -39 -17 -70 -31 l-58 -26 0 90 0 90 58 29 c31 17 63 30 70 31 9
0 12 -24 12 -89z"/>
</g>
</svg>
